<?xml version="1.0" encoding="UTF-8"?>
<svg xmlns="http://www.w3.org/2000/svg" viewBox="0 0 48 48" width="48" height="48">
  <defs>
    <linearGradient id="fcflame" x1="24" y1="4" x2="24" y2="44" gradientUnits="userSpaceOnUse">
      <stop offset="0" stop-color="#ffd24a"/>
      <stop offset="0.5" stop-color="#ff8659"/>
      <stop offset="1" stop-color="#ff6b35"/>
    </linearGradient>
  </defs>
  <path fill="url(#fcflame)" d="M25.6 3.5c.9 5.9-2.2 9.3-5.3 12.6-3.3 3.5-6.8 7.2-6.8 13.3 0 6.6 5 11.1 10.8 11.1 6.4 0 11-4.7 11-11 0-3.6-1.4-6.6-3.1-9-.4 2.3-1.9 3.9-3.6 3.9-1.9 0-3-1.5-3-3.6 0-2.7 1.7-4.9 1.7-8.4 0-3.6-2-6.9-4.9-9-.5-.4-1.3-.1-1.5.5-.2.6-.2 1.4-.3 2.1z"/>
  <path fill="#fff3e0" opacity="0.85" d="M24.1 24.8c1.9 1.4 3.1 3.4 3.1 5.8 0 2.9-2 5.1-4.7 5.1-2.5 0-4.3-1.9-4.3-4.4 0-2.6 1.5-4.3 3-6 .5 1.4 1.4 2.2 2.4 2.2.9 0 1.5-.9 1.5-2.1 0-.2 0-.4 0-.6z"/>
</svg>
